<?xml version="1.0" encoding="UTF-8"?>
<!DOCTYPE svg PUBLIC "-//W3C//DTD SVG 1.1//EN" "http://www.w3.org/Graphics/SVG/1.1/DTD/svg11.dtd">
<svg xmlns="http://www.w3.org/2000/svg" version="1.1" width="2000px" height="1247px" style="shape-rendering:geometricPrecision; text-rendering:geometricPrecision; image-rendering:optimizeQuality; fill-rule:evenodd; clip-rule:evenodd" xmlns:xlink="http://www.w3.org/1999/xlink">
<g><path style="opacity:0.996" fill="#fedb98" d="M 418.5,-0.5 C 834.833,-0.5 1251.17,-0.5 1667.5,-0.5C 1667.5,415.167 1667.5,830.833 1667.5,1246.5C 1251.17,1246.5 834.833,1246.5 418.5,1246.5C 418.5,1177.17 418.5,1107.83 418.5,1038.5C 441.833,1038.5 465.167,1038.5 488.5,1038.5C 488.5,1084.5 488.5,1130.5 488.5,1176.5C 858,1177.5 1227.67,1177.83 1597.5,1177.5C 1597.5,807.833 1597.5,438.167 1597.5,68.5C 1227.67,68.1668 858,68.5002 488.5,69.5C 488.5,115.5 488.5,161.5 488.5,207.5C 465.167,207.5 441.833,207.5 418.5,207.5C 418.5,138.167 418.5,68.8333 418.5,-0.5 Z"/></g>
<g><path style="opacity:0.132" fill="#ffd79b" d="M 488.5,69.5 C 858,68.5002 1227.67,68.1668 1597.5,68.5C 1597.5,438.167 1597.5,807.833 1597.5,1177.5C 1227.67,1177.83 858,1177.5 488.5,1176.5C 857.833,1176.5 1227.17,1176.5 1596.5,1176.5C 1596.5,807.5 1596.5,438.5 1596.5,69.5C 1227.17,69.5 857.833,69.5 488.5,69.5 Z"/></g>
<g><path style="opacity:0.999" fill="#ffda98" d="M 913.5,236.5 C 1055.5,236.5 1197.5,236.5 1339.5,236.5C 1339.5,298.833 1339.5,361.167 1339.5,423.5C 1196.17,423.333 1052.83,423.5 909.5,424C 867.221,428.952 846.054,452.785 846,495.5C 845.5,666.833 845.333,838.166 845.5,1009.5C 783.5,1009.5 721.5,1009.5 659.5,1009.5C 659.333,831.833 659.5,654.166 660,476.5C 668.092,370.117 721.259,296.617 819.5,256C 850.008,244.8 881.341,238.3 913.5,236.5 Z"/></g>
</svg>
